<?xml version="1.0" encoding="UTF-8" standalone="no"?>
<!-- Created with Inkscape (http://www.inkscape.org/) -->

<svg
   width="185.61314mm"
   height="64.892723mm"
   viewBox="0 0 185.61314 64.892724"
   version="1.1"
   id="svg5"
   xmlns="http://www.w3.org/2000/svg"
   xmlns:svg="http://www.w3.org/2000/svg">
  <defs
     id="defs2">
    <linearGradient
       id="linearGradient3321">
      <stop
         style="stop-color:#000000;stop-opacity:1;"
         offset="0"
         id="stop3319" />
    </linearGradient>
    <linearGradient
       id="linearGradient2877">
      <stop
         style="stop-color:#000000;stop-opacity:1;"
         offset="0"
         id="stop2875" />
    </linearGradient>
    <linearGradient
       id="linearGradient862">
      <stop
         style="stop-color:#000000;stop-opacity:1;"
         offset="0"
         id="stop860" />
    </linearGradient>
  </defs>
  <g
     id="layer1"
     transform="translate(-34.558581,-2.2377172)">
    <g
       aria-label="Glu   nic"
       transform="matrix(0.73573291,0,0,1.3591889,35.005757,0.59731257)"
       id="text3265"
       style="font-size:61.9935px;font-family:'Unifont CSUR';-inkscape-font-specification:'Unifont CSUR, Normal';fill:#dca54c;fill-opacity:1;stroke-width:20.7947">
      <path
         d="m 20.841955,24.687794 h 15.312394 v 21.697725 q -3.595623,1.177876 -7.253239,1.735818 -3.657617,0.557941 -8.307129,0.557941 -6.881279,0 -11.5927851,-2.727714 -4.7115056,-2.789707 -7.1912456,-7.873174 -2.41774651,-5.145461 -2.41774651,-12.150726 0,-6.943272 2.72771401,-12.026739 2.727714,-5.0834674 7.8111811,-7.8731749 5.1454601,-2.851701 12.3987001,-2.851701 3.71961,0 7.005265,0.6819285 3.347649,0.6819285 6.19935,1.9217985 L 33.426635,10.615269 Q 31.070882,9.5613796 28.095194,8.8174576 25.1815,8.0735356 22.019831,8.0735356 q -7.935168,0 -12.3987001,4.7734994 -4.4015381,4.7735 -4.4015381,13.080629 0,5.269447 1.6738241,9.361018 1.735818,4.029578 5.3934351,6.323337 3.657616,2.231766 9.608992,2.231766 2.913695,0 4.95948,-0.309967 2.045786,-0.309968 3.71961,-0.743922 V 29.647274 h -9.732979 z"
         id="path3710"
         style="fill:#dca54c;fill-opacity:1" />
      <path
         d="M 55.894166,48.321959 H 50.438738 V 1.2068997 h 5.455428 z"
         id="path3712"
         style="fill:#dca54c;fill-opacity:1" />
      <path
         d="m 98.006519,15.034946 v 33.228516 h -4.463532 l -0.805915,-4.401538 h -0.247974 q -1.611831,2.603727 -4.463532,3.843597 -2.851701,1.177876 -6.075363,1.177876 -6.01337,0 -9.051051,-2.851701 Q 69.86147,43.118002 69.86147,36.794665 V 15.034946 h 5.517422 v 21.387758 q 0,7.935168 7.377226,7.935168 5.517422,0 7.625201,-3.099675 2.169772,-3.099675 2.169772,-8.927064 V 15.034946 Z"
         id="path3714"
         style="fill:#dca54c;fill-opacity:1" />
      <path
         d="m 183.38618,14.637081 q 5.95137,0 8.98906,2.913695 3.03768,2.851701 3.03768,9.299025 v 21.635731 h -5.39344 v -21.26377 q 0,-7.997162 -7.43922,-7.997162 -5.51742,0 -7.6252,3.099675 -2.10778,3.099675 -2.10778,8.927064 v 17.234193 h -5.45543 V 15.257016 h 4.40154 l 0.80592,4.525526 h 0.30997 q 1.61183,-2.603727 4.46353,-3.843597 2.8517,-1.301864 6.01337,-1.301864 z"
         id="path3716"
         style="fill:#dca54c;fill-opacity:1" />
      <path
         d="m 212.06525,2.9527964 q 1.23987,0 2.16978,0.867909 0.99189,0.8059155 0.99189,2.603727 0,1.735818 -0.99189,2.603727 -0.92991,0.867909 -2.16978,0.867909 -1.36385,0 -2.29376,-0.867909 -0.9299,-0.867909 -0.9299,-2.603727 0,-1.7978115 0.9299,-2.603727 0.92991,-0.867909 2.29376,-0.867909 z m 2.66572,12.4606936 v 33.228516 h -5.45542 V 15.41349 Z"
         id="path3718"
         style="fill:#dca54c;fill-opacity:1" />
      <path
         d="m 242.56248,48.950611 q -4.40154,0 -7.87318,-1.797811 -3.40964,-1.797812 -5.39343,-5.579415 -1.9218,-3.781604 -1.9218,-9.670986 0,-6.137357 2.04578,-9.980954 2.04579,-3.843597 5.51743,-5.641408 3.53363,-1.797812 7.99716,-1.797812 2.54173,0 4.89748,0.557942 2.35576,0.495948 3.8436,1.23987 l -1.67382,4.525525 q -1.48785,-0.557941 -3.47164,-1.053889 -1.98379,-0.495948 -3.71961,-0.495948 -9.79497,0 -9.79497,12.58468 0,6.01337 2.35575,9.237032 2.41775,3.161668 7.12925,3.161668 2.72772,0 4.7735,-0.557941 2.10778,-0.557942 3.8436,-1.363857 V 47.1528 q -1.67383,0.867909 -3.71961,1.301863 -1.98379,0.495948 -4.83549,0.495948 z"
         id="path3720"
         style="fill:#dca54c;fill-opacity:1" />
    </g>
    <path
       style="color:#000000;fill:#dca54c;-inkscape-stroke:none"
       d="m 132.73242,23.982422 c -11.09499,0 -20.05469,9.47607 -20.05469,21.066406 0,11.590337 8.9597,21.066406 20.05469,21.066406 11.095,0 20.05469,-9.476069 20.05469,-21.066406 0,-11.590336 -8.95969,-21.066406 -20.05469,-21.066406 z m 0,2.25 c 9.81465,0 17.80469,8.379821 17.80469,18.816406 0,10.436586 -7.99004,18.818359 -17.80469,18.818359 -9.81465,0 -17.80664,-8.381773 -17.80664,-18.818359 0,-10.436585 7.99199,-18.816406 17.80664,-18.816406 z"
       id="path357" />
    <g
       id="path359">
      <path
         style="color:#000000;fill:#dca54c;stroke-width:0.13047;-inkscape-stroke:none"
         d="m 123.58368,51.454494 a 2.4684608,2.6894953 0 0 1 -2.46846,2.689496 2.4684608,2.6894953 0 0 1 -2.46846,-2.689496 2.4684608,2.6894953 0 0 1 2.46846,-2.689495 2.4684608,2.6894953 0 0 1 2.46846,2.689495 z"
         id="path14070" />
      <path
         style="color:#000000;fill:#dca54c;-inkscape-stroke:none"
         d="m 121.11523,48.699219 c -1.4017,0 -2.5332,1.238136 -2.5332,2.755859 0,1.517724 1.1315,2.753906 2.5332,2.753906 1.40171,0 2.53321,-1.236182 2.53321,-2.753906 0,-1.517723 -1.1315,-2.755859 -2.53321,-2.755859 z m 0,0.130859 c 1.32488,10e-7 2.40235,1.171993 2.40235,2.625 0,1.453008 -1.07747,2.623047 -2.40235,2.623047 -1.32487,0 -2.40234,-1.170039 -2.40234,-2.623047 0,-1.453007 1.07747,-2.624999 2.40234,-2.625 z"
         id="path14072" />
    </g>
    <g
       id="path359-7">
      <path
         style="color:#000000;fill:#dca54c;stroke-width:0.13047;-inkscape-stroke:none"
         d="m 135.27361,31.252773 a 2.4684608,2.6894953 0 0 1 -2.46846,2.689496 2.4684608,2.6894953 0 0 1 -2.46847,-2.689496 2.4684608,2.6894953 0 0 1 2.46847,-2.689495 2.4684608,2.6894953 0 0 1 2.46846,2.689495 z"
         id="path14076" />
      <path
         style="color:#000000;fill:#dca54c;-inkscape-stroke:none"
         d="m 132.80469,28.498047 c -1.40171,-6e-6 -2.53321,1.236178 -2.53321,2.753906 0,1.517728 1.1315,2.755865 2.53321,2.755859 1.4017,0 2.5332,-1.238135 2.5332,-2.755859 0,-1.517723 -1.1315,-2.753906 -2.5332,-2.753906 z m 0,0.130859 c 1.32488,1e-6 2.40429,1.17004 2.40429,2.623047 0,1.453008 -1.07941,2.625 -2.40429,2.625 -1.32489,6e-6 -2.40235,-1.171988 -2.40235,-2.625 0,-1.453011 1.07746,-2.623052 2.40235,-2.623047 z"
         id="path14078" />
    </g>
    <g
       id="path359-5">
      <path
         style="color:#000000;fill:#dca54c;stroke-width:0.13047;-inkscape-stroke:none"
         d="m 146.4298,51.925716 a 2.4684608,2.6894953 0 0 1 -2.46847,2.689496 2.4684608,2.6894953 0 0 1 -2.46846,-2.689496 2.4684608,2.6894953 0 0 1 2.46846,-2.689495 2.4684608,2.6894953 0 0 1 2.46847,2.689495 z"
         id="path14082" />
      <path
         style="color:#000000;fill:#dca54c;-inkscape-stroke:none"
         d="m 143.96094,49.171875 c -1.40171,0 -2.53321,1.236183 -2.53321,2.753906 0,1.517724 1.1315,2.753906 2.53321,2.753906 1.40171,6e-6 2.5332,-1.236178 2.5332,-2.753906 0,-1.517727 -1.13149,-2.753912 -2.5332,-2.753906 z m 0,0.128906 c 1.32488,-5e-6 2.40429,1.171989 2.40429,2.625 0,1.453012 -1.07941,2.625006 -2.40429,2.625 -1.32488,0 -2.40235,-1.171992 -2.40235,-2.625 0,-1.453007 1.07747,-2.624999 2.40235,-2.625 z"
         id="path14084" />
    </g>
    <g
       id="path2592">
      <path
         style="color:#000000;fill:#dca54c;stroke-width:0.455463;-inkscape-stroke:none"
         d="m 123.46268,46.654238 c 6.11391,-10.22061 6.11391,-10.22061 6.11391,-10.22061"
         id="path13906" />
      <path
         style="color:#000000;fill:#dca54c;-inkscape-stroke:none"
         d="m 129.38086,36.316406 -6.11328,10.220703 0.39062,0.234375 6.11328,-10.220703 z"
         id="path13908" />
      <g
         id="g13888">
        <g
           id="path13898">
          <path
             style="color:#000000;fill:#dca54c;fill-rule:evenodd;stroke-width:0.227732pt;-inkscape-stroke:none"
             d="m 130.25115,35.305976 -0.0341,2.275037 -1.95434,-1.169073 z"
             id="path13902" />
          <path
             style="color:#000000;fill:#dca54c;fill-rule:evenodd;-inkscape-stroke:none"
             d="m 130.40625,35.044922 -0.22852,0.128906 -2.21875,1.232422 2.40625,1.439453 z m -0.31055,0.521484 -0.0273,1.75 -1.50195,-0.90039 z"
             id="path13904" />
        </g>
        <g
           id="path13890"
           transform="rotate(60,123.06933,46.666007)">
          <path
             style="color:#000000;fill:#dca54c;fill-rule:evenodd;stroke-width:0.227732pt;-inkscape-stroke:none"
             d="m 124.13724,45.526586 -0.0341,2.275037 -1.95434,-1.169073 z"
             id="path13894" />
          <path
             style="color:#000000;fill:#dca54c;fill-rule:evenodd;-inkscape-stroke:none"
             d="m 124.29297,45.265625 -0.23047,0.128906 -2.2168,1.232422 2.40625,1.439453 z m -0.31055,0.521484 -0.0273,1.75 -1.50195,-0.90039 z"
             id="path13896" />
        </g>
      </g>
    </g>
    <g
       id="path2592-1">
      <path
         style="color:#000000;fill:#dca54c;stroke-width:0.455463;-inkscape-stroke:none"
         d="m 141.6735,46.946478 c -5.91665,-10.34681 -5.91665,-10.34681 -5.91665,-10.34681"
         id="path14118" />
      <path
         style="color:#000000;fill:#dca54c;-inkscape-stroke:none"
         d="m 135.95508,36.486328 -0.39649,0.226563 5.91797,10.345703 0.39453,-0.22461 z"
         id="path14120" />
      <g
         id="g14100">
        <g
           id="path14110">
          <path
             style="color:#000000;fill:#dca54c;fill-rule:evenodd;stroke-width:0.227732pt;-inkscape-stroke:none"
             d="m 135.10457,35.458986 1.96631,1.144801 -1.97691,1.130467 z"
             id="path14114" />
          <path
             style="color:#000000;fill:#dca54c;fill-rule:evenodd;-inkscape-stroke:none"
             d="m 134.95312,35.195312 v 0.263672 l -0.0117,2.53711 2.43359,-1.390625 z m 0.30079,0.527344 1.51367,0.88086 -1.51953,0.867187 z"
             id="path14116" />
        </g>
        <g
           id="path14102"
           transform="rotate(-60.384041,142.07419,46.94336)">
          <path
             style="color:#000000;fill:#dca54c;fill-rule:evenodd;stroke-width:0.227732pt;-inkscape-stroke:none"
             d="m 141.02122,45.805796 1.96631,1.144801 -1.97691,1.130467 z"
             id="path14106" />
          <path
             style="color:#000000;fill:#dca54c;fill-rule:evenodd;-inkscape-stroke:none"
             d="m 140.87109,45.542969 -0.002,0.261718 -0.0117,2.539063 2.4336,-1.392578 z m 0.30078,0.527343 1.51172,0.878907 -1.51953,0.86914 z"
             id="path14108" />
        </g>
      </g>
    </g>
    <g
       id="path2592-9">
      <path
         style="color:#000000;fill:#dca54c;stroke-width:0.442667;-inkscape-stroke:none"
         d="m 138.1442,52.281508 c -10.98023,-0.14757 -10.98023,-0.14757 -10.98023,-0.14757"
         id="path14142" />
      <path
         style="color:#000000;fill:#dca54c;-inkscape-stroke:none"
         d="m 127.16602,51.912109 -0.006,0.44336 10.98046,0.146484 0.006,-0.441406 z"
         id="path14144" />
      <g
         id="g14124">
        <g
           id="path14134">
          <path
             style="color:#000000;fill:#dca54c;fill-rule:evenodd;stroke-width:0.221334pt;-inkscape-stroke:none"
             d="m 125.88699,52.116776 1.92923,-1.080839 -0.0297,2.213135 z"
             id="path14138" />
          <path
             style="color:#000000;fill:#dca54c;fill-rule:evenodd;-inkscape-stroke:none"
             d="m 127.9668,50.78125 -2.375,1.332031 0.21875,0.13086 2.11914,1.261718 z m -0.30274,0.507812 -0.0215,1.703125 -1.46094,-0.871093 z"
             id="path14140" />
        </g>
        <g
           id="path14126"
           transform="rotate(180,137.75977,52.291992)">
          <path
             style="color:#000000;fill:#dca54c;fill-rule:evenodd;stroke-width:0.221334pt;-inkscape-stroke:none"
             d="m 136.86722,52.264346 1.92923,-1.080839 -0.0297,2.213135 z"
             id="path14130" />
          <path
             style="color:#000000;fill:#dca54c;fill-rule:evenodd;-inkscape-stroke:none"
             d="m 138.94727,50.929687 -2.375,1.330079 0.21875,0.130859 2.11914,1.263672 z m -0.30274,0.507813 -0.0215,1.701172 -1.46094,-0.871094 z"
             id="path14132" />
        </g>
      </g>
    </g>
  </g>
</svg>
