<?xml version="1.0" encoding="UTF-8" standalone="no"?>
<!-- Created with Inkscape (http://www.inkscape.org/) -->

<svg
   width="40.109379mm"
   height="42.132812mm"
   viewBox="0 0 40.109378 42.132813"
   version="1.1"
   id="svg5"
   sodipodi:docname="gluonic-logo-small.svg"
   inkscape:version="1.2.1 (9c6d41e410, 2022-07-14, custom)"
   xmlns:inkscape="http://www.inkscape.org/namespaces/inkscape"
   xmlns:sodipodi="http://sodipodi.sourceforge.net/DTD/sodipodi-0.dtd"
   xmlns="http://www.w3.org/2000/svg"
   xmlns:svg="http://www.w3.org/2000/svg">
  <sodipodi:namedview
     id="namedview23"
     pagecolor="#ffffff"
     bordercolor="#000000"
     borderopacity="0.25"
     inkscape:showpageshadow="2"
     inkscape:pageopacity="0.0"
     inkscape:pagecheckerboard="0"
     inkscape:deskcolor="#d1d1d1"
     inkscape:document-units="mm"
     showgrid="false"
     inkscape:zoom="1.4142136"
     inkscape:cx="176.42314"
     inkscape:cy="204.35386"
     inkscape:window-width="2514"
     inkscape:window-height="1359"
     inkscape:window-x="2580"
     inkscape:window-y="380"
     inkscape:window-maximized="1"
     inkscape:current-layer="layer1" />
  <defs
     id="defs2">
    <linearGradient
       id="linearGradient3321">
      <stop
         style="stop-color:#000000;stop-opacity:1;"
         offset="0"
         id="stop3319" />
    </linearGradient>
    <linearGradient
       id="linearGradient2877">
      <stop
         style="stop-color:#000000;stop-opacity:1;"
         offset="0"
         id="stop2875" />
    </linearGradient>
    <linearGradient
       id="linearGradient862">
      <stop
         style="stop-color:#000000;stop-opacity:1;"
         offset="0"
         id="stop860" />
    </linearGradient>
  </defs>
  <g
     id="layer1"
     transform="translate(-112.67773,-23.982422)">
    <path
       style="color:#000000;fill:#dca54c;-inkscape-stroke:none"
       d="m 132.73242,23.982422 c -11.09499,0 -20.05469,9.47607 -20.05469,21.066406 0,11.590337 8.9597,21.066406 20.05469,21.066406 11.095,0 20.05469,-9.476069 20.05469,-21.066406 0,-11.590336 -8.95969,-21.066406 -20.05469,-21.066406 z m 0,2.25 c 9.81465,0 17.80469,8.379821 17.80469,18.816406 0,10.436586 -7.99004,18.818359 -17.80469,18.818359 -9.81465,0 -17.80664,-8.381773 -17.80664,-18.818359 0,-10.436585 7.99199,-18.816406 17.80664,-18.816406 z"
       id="path357" />
    <g
       id="path359">
      <path
         style="color:#000000;fill:#dca54c;stroke-width:0.13047;-inkscape-stroke:none"
         d="m 123.58368,51.454494 a 2.4684608,2.6894953 0 0 1 -2.46846,2.689496 2.4684608,2.6894953 0 0 1 -2.46846,-2.689496 2.4684608,2.6894953 0 0 1 2.46846,-2.689495 2.4684608,2.6894953 0 0 1 2.46846,2.689495 z"
         id="path14070" />
      <path
         style="color:#000000;fill:#dca54c;-inkscape-stroke:none"
         d="m 121.11523,48.699219 c -1.4017,0 -2.5332,1.238136 -2.5332,2.755859 0,1.517724 1.1315,2.753906 2.5332,2.753906 1.40171,0 2.53321,-1.236182 2.53321,-2.753906 0,-1.517723 -1.1315,-2.755859 -2.53321,-2.755859 z m 0,0.130859 c 1.32488,10e-7 2.40235,1.171993 2.40235,2.625 0,1.453008 -1.07747,2.623047 -2.40235,2.623047 -1.32487,0 -2.40234,-1.170039 -2.40234,-2.623047 0,-1.453007 1.07747,-2.624999 2.40234,-2.625 z"
         id="path14072" />
    </g>
    <g
       id="path359-7">
      <path
         style="color:#000000;fill:#dca54c;stroke-width:0.13047;-inkscape-stroke:none"
         d="m 135.27361,31.252773 a 2.4684608,2.6894953 0 0 1 -2.46846,2.689496 2.4684608,2.6894953 0 0 1 -2.46847,-2.689496 2.4684608,2.6894953 0 0 1 2.46847,-2.689495 2.4684608,2.6894953 0 0 1 2.46846,2.689495 z"
         id="path14076" />
      <path
         style="color:#000000;fill:#dca54c;-inkscape-stroke:none"
         d="m 132.80469,28.498047 c -1.40171,-6e-6 -2.53321,1.236178 -2.53321,2.753906 0,1.517728 1.1315,2.755865 2.53321,2.755859 1.4017,0 2.5332,-1.238135 2.5332,-2.755859 0,-1.517723 -1.1315,-2.753906 -2.5332,-2.753906 z m 0,0.130859 c 1.32488,1e-6 2.40429,1.17004 2.40429,2.623047 0,1.453008 -1.07941,2.625 -2.40429,2.625 -1.32489,6e-6 -2.40235,-1.171988 -2.40235,-2.625 0,-1.453011 1.07746,-2.623052 2.40235,-2.623047 z"
         id="path14078" />
    </g>
    <g
       id="path359-5">
      <path
         style="color:#000000;fill:#dca54c;stroke-width:0.13047;-inkscape-stroke:none"
         d="m 146.4298,51.925716 a 2.4684608,2.6894953 0 0 1 -2.46847,2.689496 2.4684608,2.6894953 0 0 1 -2.46846,-2.689496 2.4684608,2.6894953 0 0 1 2.46846,-2.689495 2.4684608,2.6894953 0 0 1 2.46847,2.689495 z"
         id="path14082" />
      <path
         style="color:#000000;fill:#dca54c;-inkscape-stroke:none"
         d="m 143.96094,49.171875 c -1.40171,0 -2.53321,1.236183 -2.53321,2.753906 0,1.517724 1.1315,2.753906 2.53321,2.753906 1.40171,6e-6 2.5332,-1.236178 2.5332,-2.753906 0,-1.517727 -1.13149,-2.753912 -2.5332,-2.753906 z m 0,0.128906 c 1.32488,-5e-6 2.40429,1.171989 2.40429,2.625 0,1.453012 -1.07941,2.625006 -2.40429,2.625 -1.32488,0 -2.40235,-1.171992 -2.40235,-2.625 0,-1.453007 1.07747,-2.624999 2.40235,-2.625 z"
         id="path14084" />
    </g>
    <g
       id="path2592">
      <path
         style="color:#000000;fill:#dca54c;stroke-width:0.455463;-inkscape-stroke:none"
         d="m 123.46268,46.654238 c 6.11391,-10.22061 6.11391,-10.22061 6.11391,-10.22061"
         id="path13906" />
      <path
         style="color:#000000;fill:#dca54c;-inkscape-stroke:none"
         d="m 129.38086,36.316406 -6.11328,10.220703 0.39062,0.234375 6.11328,-10.220703 z"
         id="path13908" />
      <g
         id="g13888">
        <g
           id="path13898">
          <path
             style="color:#000000;fill:#dca54c;fill-rule:evenodd;stroke-width:0.227732pt;-inkscape-stroke:none"
             d="m 130.25115,35.305976 -0.0341,2.275037 -1.95434,-1.169073 z"
             id="path13902" />
          <path
             style="color:#000000;fill:#dca54c;fill-rule:evenodd;-inkscape-stroke:none"
             d="m 130.40625,35.044922 -0.22852,0.128906 -2.21875,1.232422 2.40625,1.439453 z m -0.31055,0.521484 -0.0273,1.75 -1.50195,-0.90039 z"
             id="path13904" />
        </g>
        <g
           id="path13890"
           transform="rotate(60,123.06933,46.666007)">
          <path
             style="color:#000000;fill:#dca54c;fill-rule:evenodd;stroke-width:0.227732pt;-inkscape-stroke:none"
             d="m 124.13724,45.526586 -0.0341,2.275037 -1.95434,-1.169073 z"
             id="path13894" />
          <path
             style="color:#000000;fill:#dca54c;fill-rule:evenodd;-inkscape-stroke:none"
             d="m 124.29297,45.265625 -0.23047,0.128906 -2.2168,1.232422 2.40625,1.439453 z m -0.31055,0.521484 -0.0273,1.75 -1.50195,-0.90039 z"
             id="path13896" />
        </g>
      </g>
    </g>
    <g
       id="path2592-1">
      <path
         style="color:#000000;fill:#dca54c;stroke-width:0.455463;-inkscape-stroke:none"
         d="m 141.6735,46.946478 c -5.91665,-10.34681 -5.91665,-10.34681 -5.91665,-10.34681"
         id="path14118" />
      <path
         style="color:#000000;fill:#dca54c;-inkscape-stroke:none"
         d="m 135.95508,36.486328 -0.39649,0.226563 5.91797,10.345703 0.39453,-0.22461 z"
         id="path14120" />
      <g
         id="g14100">
        <g
           id="path14110">
          <path
             style="color:#000000;fill:#dca54c;fill-rule:evenodd;stroke-width:0.227732pt;-inkscape-stroke:none"
             d="m 135.10457,35.458986 1.96631,1.144801 -1.97691,1.130467 z"
             id="path14114" />
          <path
             style="color:#000000;fill:#dca54c;fill-rule:evenodd;-inkscape-stroke:none"
             d="m 134.95312,35.195312 v 0.263672 l -0.0117,2.53711 2.43359,-1.390625 z m 0.30079,0.527344 1.51367,0.88086 -1.51953,0.867187 z"
             id="path14116" />
        </g>
        <g
           id="path14102"
           transform="rotate(-60.384041,142.07419,46.94336)">
          <path
             style="color:#000000;fill:#dca54c;fill-rule:evenodd;stroke-width:0.227732pt;-inkscape-stroke:none"
             d="m 141.02122,45.805796 1.96631,1.144801 -1.97691,1.130467 z"
             id="path14106" />
          <path
             style="color:#000000;fill:#dca54c;fill-rule:evenodd;-inkscape-stroke:none"
             d="m 140.87109,45.542969 -0.002,0.261718 -0.0117,2.539063 2.4336,-1.392578 z m 0.30078,0.527343 1.51172,0.878907 -1.51953,0.86914 z"
             id="path14108" />
        </g>
      </g>
    </g>
    <g
       id="path2592-9">
      <path
         style="color:#000000;fill:#dca54c;stroke-width:0.442667;-inkscape-stroke:none"
         d="m 138.1442,52.281508 c -10.98023,-0.14757 -10.98023,-0.14757 -10.98023,-0.14757"
         id="path14142" />
      <path
         style="color:#000000;fill:#dca54c;-inkscape-stroke:none"
         d="m 127.16602,51.912109 -0.006,0.44336 10.98046,0.146484 0.006,-0.441406 z"
         id="path14144" />
      <g
         id="g14124">
        <g
           id="path14134">
          <path
             style="color:#000000;fill:#dca54c;fill-rule:evenodd;stroke-width:0.221334pt;-inkscape-stroke:none"
             d="m 125.88699,52.116776 1.92923,-1.080839 -0.0297,2.213135 z"
             id="path14138" />
          <path
             style="color:#000000;fill:#dca54c;fill-rule:evenodd;-inkscape-stroke:none"
             d="m 127.9668,50.78125 -2.375,1.332031 0.21875,0.13086 2.11914,1.261718 z m -0.30274,0.507812 -0.0215,1.703125 -1.46094,-0.871093 z"
             id="path14140" />
        </g>
        <g
           id="path14126"
           transform="rotate(180,137.75977,52.291992)">
          <path
             style="color:#000000;fill:#dca54c;fill-rule:evenodd;stroke-width:0.221334pt;-inkscape-stroke:none"
             d="m 136.86722,52.264346 1.92923,-1.080839 -0.0297,2.213135 z"
             id="path14130" />
          <path
             style="color:#000000;fill:#dca54c;fill-rule:evenodd;-inkscape-stroke:none"
             d="m 138.94727,50.929687 -2.375,1.330079 0.21875,0.130859 2.11914,1.263672 z m -0.30274,0.507813 -0.0215,1.701172 -1.46094,-0.871094 z"
             id="path14132" />
        </g>
      </g>
    </g>
  </g>
</svg>
