<?xml version="1.0" standalone="no"?>
<!DOCTYPE svg PUBLIC "-//W3C//DTD SVG 20010904//EN"
 "http://www.w3.org/TR/2001/REC-SVG-20010904/DTD/svg10.dtd">
<svg version="1.0" xmlns="http://www.w3.org/2000/svg"
 width="636.000000pt" height="636.000000pt" viewBox="0 0 636.000000 636.000000"
 preserveAspectRatio="xMidYMid meet">
<metadata>
Created by potrace 1.14, written by Peter Selinger 2001-2017
</metadata>
<g transform="translate(0.000000,636.000000) scale(0.100000,-0.100000)"
fill="#000000" stroke="none">
<path d="M2979 6355 c-2 -1 -36 -6 -76 -9 -60 -5 -185 -25 -328 -51 -61 -12
-253 -65 -335 -94 -247 -85 -503 -216 -725 -370 -91 -63 -79 -54 -210 -163
-192 -159 -434 -420 -545 -588 -8 -12 -26 -39 -41 -59 -76 -108 -266 -450
-262 -471 1 -3 -2 -10 -7 -15 -8 -10 -78 -176 -86 -205 -2 -8 -20 -62 -39
-120 -73 -216 -128 -475 -152 -720 -4 -41 -7 -185 -7 -320 1 -217 3 -276 19
-395 2 -16 6 -50 10 -75 3 -25 10 -70 16 -100 6 -30 13 -68 16 -85 19 -107
111 -430 143 -500 5 -11 25 -58 44 -105 73 -182 169 -364 284 -539 31 -47 62
-93 69 -101 6 -8 46 -59 87 -113 93 -120 114 -143 246 -276 155 -156 192 -186
466 -388 5 -5 21 -14 35 -22 13 -8 53 -33 89 -55 79 -48 288 -156 350 -180 25
-10 59 -24 75 -31 106 -48 468 -151 560 -159 22 -2 47 -7 56 -10 9 -4 20 -6
25 -5 5 1 11 0 14 -1 72 -29 643 -34 785 -6 11 2 45 7 76 10 31 4 71 11 88 16
17 5 34 9 36 9 3 0 20 3 38 6 17 3 39 7 47 9 25 5 130 35 220 63 47 15 87 28
90 28 3 1 19 7 35 14 17 6 44 16 60 22 170 61 515 250 646 353 15 12 39 30 55
41 26 19 55 42 153 124 69 57 261 249 327 326 97 114 274 354 274 372 0 3 11
21 25 39 14 18 25 37 25 42 0 5 9 20 19 34 46 58 261 526 261 567 0 5 4 20 9
33 5 13 9 26 10 30 1 4 9 27 17 50 13 37 60 212 69 259 9 45 18 97 21 119 1
14 3 25 4 25 3 0 9 37 15 90 3 28 8 57 10 65 26 99 26 679 0 820 -3 14 -7 48
-10 75 -7 62 -15 106 -20 114 -2 4 -6 27 -10 51 -19 131 -122 476 -184 615 -5
11 -19 43 -31 70 -32 72 -104 219 -110 225 -3 3 -18 30 -34 60 -16 30 -35 62
-42 71 -8 8 -14 19 -14 23 0 15 -200 303 -242 348 -7 7 -38 43 -68 78 -104
124 -383 390 -409 390 -6 0 -11 4 -11 8 0 8 -204 158 -250 183 -14 8 -35 23
-47 33 -13 11 -23 16 -23 11 0 -4 -8 -1 -17 7 -64 56 -497 250 -633 283 -8 2
-51 13 -95 25 -69 19 -200 48 -286 64 -15 2 -53 7 -85 11 -33 4 -70 9 -84 12
-29 6 -496 14 -501 8z m476 -348 c11 -3 47 -8 80 -11 33 -4 67 -9 75 -11 8 -2
29 -7 45 -9 112 -20 248 -56 364 -97 47 -17 103 -36 124 -42 20 -6 37 -15 37
-19 0 -4 6 -8 14 -8 7 0 62 -24 122 -54 498 -247 896 -628 1182 -1132 29 -50
52 -96 52 -101 0 -5 6 -15 13 -22 6 -6 12 -15 13 -19 0 -4 10 -27 21 -52 50
-112 62 -139 86 -205 26 -70 65 -187 72 -215 2 -8 8 -30 14 -47 5 -18 8 -33 5
-33 -3 0 0 -8 5 -17 5 -10 11 -31 14 -48 3 -16 13 -68 22 -115 9 -47 18 -96
20 -110 2 -14 6 -38 9 -55 15 -89 20 -203 20 -405 0 -193 -9 -382 -19 -400 -2
-3 -7 -33 -10 -65 -4 -33 -9 -63 -11 -66 -2 -3 -6 -21 -9 -40 -3 -19 -8 -41
-10 -49 -2 -8 -7 -31 -10 -50 -20 -120 -123 -423 -198 -582 -19 -40 -37 -80
-41 -88 -3 -8 -10 -22 -15 -30 -6 -8 -36 -60 -67 -115 -123 -213 -261 -392
-444 -575 -306 -307 -632 -511 -1035 -649 -103 -35 -310 -86 -390 -96 -21 -3
-51 -8 -65 -10 -66 -14 -182 -20 -365 -20 -180 0 -256 5 -350 20 -249 41 -425
90 -635 177 -93 38 -297 142 -349 177 -14 10 -46 31 -71 47 -25 16 -70 47
-100 69 -30 22 -59 43 -65 47 -98 71 -332 295 -422 403 -96 115 -233 306 -233
323 0 6 -4 12 -9 14 -15 5 -148 258 -200 380 -49 114 -128 339 -137 388 -3 14
-11 48 -19 75 -7 28 -16 64 -18 80 -3 17 -8 37 -11 45 -3 8 -8 33 -11 55 -6
43 -12 83 -20 130 -26 151 -27 654 -1 795 2 14 8 48 12 75 4 28 8 55 10 60 1
6 4 26 8 45 11 67 16 90 26 114 5 13 6 27 3 30 -3 3 0 12 7 21 7 8 10 15 7 15
-3 0 -2 12 3 28 5 15 18 61 31 102 34 116 103 288 170 428 34 70 64 129 68
132 4 3 13 20 20 38 8 17 17 32 22 32 5 0 9 5 9 11 0 5 22 44 50 86 27 42 50
77 50 79 0 2 6 12 14 21 8 10 52 65 97 123 269 343 664 644 1061 809 180 75
455 154 582 167 21 2 41 6 45 8 4 3 45 8 91 11 47 4 87 9 88 10 6 5 435 -2
457 -8z"/>
<path d="M3105 5666 c-249 -78 -360 -354 -243 -604 24 -50 113 -152 134 -152
8 0 14 -3 14 -8 0 -4 27 -17 60 -30 65 -26 165 -31 215 -12 17 6 30 11 30 10
0 -9 69 29 103 57 65 53 77 68 112 140 38 77 44 104 44 204 -1 174 -104 330
-255 385 -58 21 -164 26 -214 10z"/>
<path d="M2647 4587 l-178 -100 43 -29 c24 -16 53 -33 66 -38 28 -12 40 -39
21 -51 -8 -5 -10 -9 -5 -9 5 0 2 -8 -6 -17 -8 -10 -73 -116 -144 -236 -71
-119 -139 -234 -152 -255 -13 -20 -25 -45 -29 -54 -3 -10 -9 -18 -13 -18 -5 0
-13 -12 -20 -27 -19 -47 -34 -73 -42 -73 -5 0 -8 -4 -8 -10 0 -5 -31 -61 -70
-124 -38 -63 -70 -117 -70 -121 0 -3 -5 -11 -11 -18 -6 -7 -58 -93 -117 -192
-59 -99 -111 -185 -115 -192 -6 -9 -21 -4 -58 17 -27 17 -53 30 -56 30 -4 0
-15 7 -25 17 -17 15 -18 14 -19 -28 -3 -183 -5 -379 -3 -379 4 0 140 73 149
79 11 9 115 67 160 89 60 30 59 32 -17 79 -40 25 -74 46 -76 47 -1 2 50 89
113 195 63 105 115 196 115 201 0 6 4 10 8 10 5 0 16 15 25 33 9 17 27 50 40
72 14 22 70 116 126 209 55 93 101 172 101 177 0 5 4 9 8 9 5 0 19 23 32 50
13 28 27 50 32 50 4 0 8 5 8 10 0 9 27 57 77 136 7 10 22 35 33 54 11 19 31
53 45 75 13 22 33 55 43 73 l18 32 72 -44 c39 -25 74 -41 76 -37 6 10 12 399
6 403 -3 2 -85 -41 -183 -95z"/>
<path d="M3518 4630 c-3 -17 -1 -33 4 -36 5 -3 6 -10 2 -15 -7 -12 -10 -317
-3 -324 5 -4 21 3 102 49 27 15 50 26 51 24 3 -4 47 -81 76 -133 12 -22 48
-85 80 -140 32 -55 68 -118 80 -140 13 -22 31 -53 41 -70 10 -16 27 -46 37
-65 10 -19 63 -111 117 -205 54 -93 111 -195 128 -225 17 -30 75 -131 129
-224 54 -92 99 -175 100 -183 2 -10 -22 -31 -64 -56 -38 -23 -68 -44 -68 -47
0 -4 10 -12 23 -18 12 -7 36 -20 52 -30 17 -9 73 -42 125 -71 52 -30 107 -63
123 -73 15 -11 28 -16 28 -11 3 15 6 413 3 413 -1 0 -30 -16 -64 -35 -34 -19
-66 -35 -71 -35 -5 0 -9 -6 -9 -12 0 -15 -19 12 -54 77 -15 28 -37 66 -48 85
-11 19 -32 56 -47 82 -14 26 -64 113 -111 195 -46 81 -93 164 -103 183 -10 19
-25 45 -33 57 -7 12 -22 37 -33 55 -123 217 -173 304 -205 363 -6 11 -16 27
-22 35 -6 8 -26 42 -44 75 -17 33 -35 65 -40 70 -4 6 -21 35 -38 66 l-30 57
36 18 c21 11 39 22 42 25 3 3 20 14 38 23 17 9 32 18 32 20 0 4 -41 29 -120
73 -19 11 -58 34 -86 50 -67 40 -144 83 -148 83 -2 0 -6 -14 -8 -30z"/>
<path d="M1323 2611 c-119 -40 -191 -116 -253 -266 -16 -40 -22 -181 -9 -231
17 -68 68 -159 113 -205 58 -57 142 -101 198 -104 15 -1 30 -3 33 -6 8 -9 137
10 151 22 8 6 14 9 14 5 0 -3 22 8 49 25 122 75 195 212 193 364 -1 81 -3 91
-31 165 -38 99 -122 184 -221 224 -64 26 -172 29 -237 7z"/>
<path d="M4771 2540 c-136 -46 -247 -180 -268 -324 -29 -195 57 -370 224 -454
37 -19 60 -25 143 -36 50 -6 210 44 210 66 0 4 5 8 11 8 14 0 76 66 105 112
46 72 63 145 60 248 -3 81 -8 105 -33 160 -50 108 -125 180 -227 217 -60 22
-165 24 -225 3z"/>
<path d="M2405 2279 c-27 -16 -67 -37 -87 -46 -21 -10 -38 -21 -38 -25 0 -5
-6 -8 -14 -8 -7 0 -25 -9 -39 -20 -15 -12 -30 -21 -34 -22 -4 0 -24 -10 -44
-21 -30 -17 -34 -23 -23 -34 7 -7 15 -13 18 -13 3 0 58 -32 123 -71 161 -98
185 -111 190 -105 3 3 5 39 5 80 0 48 4 76 11 78 7 2 75 3 152 2 77 -1 358 -5
625 -8 267 -4 492 -9 501 -12 14 -4 16 -19 15 -89 -2 -82 -2 -83 18 -73 12 6
67 37 123 69 56 33 104 59 107 59 3 0 29 14 57 32 l52 32 -31 15 c-18 8 -32
18 -32 23 0 4 -4 8 -9 8 -5 0 -70 36 -143 80 l-133 79 -3 -79 c-2 -54 -7 -80
-15 -81 -16 -1 -480 2 -757 6 -124 2 -295 4 -381 5 l-155 1 1 85 c1 46 -1 84
-4 83 -3 0 -28 -13 -56 -30z"/>
</g>
</svg>
